<?xml version="1.0" standalone="no"?>
<!DOCTYPE svg PUBLIC "-//W3C//DTD SVG 20010904//EN"
 "http://www.w3.org/TR/2001/REC-SVG-20010904/DTD/svg10.dtd">
<svg version="1.0" xmlns="http://www.w3.org/2000/svg"
 width="225.000000pt" height="225.000000pt" viewBox="0 0 225.000000 225.000000"
 preserveAspectRatio="xMidYMid meet">
<metadata>
Created by potrace 1.10, written by Peter Selinger 2001-2011
</metadata>
<g transform="translate(0.000000,225.000000) scale(0.100000,-0.100000)"
fill="#000000" stroke="none">
<path d="M1012 1960 c-236 -33 -451 -167 -584 -363 l-41 -60 190 7 c166 6 191
4 197 -9 11 -29 -5 -44 -52 -50 -26 -4 -50 -7 -53 -8 -4 -1 55 -185 130 -409
l137 -407 82 248 82 248 -57 162 c-50 139 -61 161 -79 161 -68 0 -110 28 -84
54 16 16 448 16 461 0 23 -28 -18 -54 -88 -54 -16 0 -23 -5 -20 -12 3 -7 65
-191 138 -408 l132 -394 14 49 c8 28 37 122 65 210 75 240 71 308 -30 480 -42
72 -47 86 -47 142 0 55 3 65 30 93 40 41 88 55 143 40 86 -23 130 -131 118
-290 -9 -113 -10 -119 -180 -607 -80 -232 -146 -425 -146 -427 0 -7 89 45 148
86 72 50 174 161 226 246 255 425 95 972 -349 1192 -142 70 -330 101 -483 80z
m267 -51 c36 -6 99 -23 141 -40 77 -29 200 -104 207 -126 2 -6 -11 -16 -31
-21 -53 -15 -92 -47 -115 -95 -36 -73 -29 -112 41 -245 l63 -117 0 -105 c-1
-94 -4 -116 -38 -217 -21 -62 -42 -113 -48 -113 -5 0 -9 1 -9 3 0 1 -45 134
-100 296 -101 296 -106 321 -65 321 18 0 55 48 55 72 0 10 -10 29 -23 41 -22
23 -26 23 -251 22 -227 0 -228 0 -247 -24 -10 -13 -19 -31 -19 -41 0 -30 39
-69 76 -76 19 -3 39 -15 44 -25 28 -51 90 -239 89 -269 -1 -43 -100 -336 -113
-333 -6 1 -56 138 -112 305 -101 298 -108 328 -71 328 6 0 21 10 34 22 32 30
30 71 -4 98 -27 21 -34 22 -165 15 -171 -9 -173 -5 -55 109 196 191 428 260
716 215z m610 -541 c28 -94 44 -221 36 -301 -15 -166 -81 -330 -181 -451 -56
-68 -159 -156 -182 -156 -16 0 -26 -31 116 380 139 403 149 437 158 540 8 97
20 94 53 -12z"/>
<path d="M345 1426 c-8 -19 -25 -70 -37 -113 -25 -91 -30 -260 -9 -358 42
-194 156 -377 309 -493 87 -66 227 -141 218 -116 -18 47 -255 695 -325 889
-79 219 -79 220 -110 223 -28 3 -33 -1 -46 -32z m73 -78 c73 -189 331 -912
327 -917 -11 -11 -92 40 -158 100 -117 105 -207 256 -244 406 -31 130 -17 361
28 445 15 29 25 21 47 -34z"/>
<path d="M1101 947 c-33 -101 -202 -588 -215 -618 -6 -12 5 -18 57 -27 155
-29 283 -23 429 18 l37 11 -23 52 c-13 29 -72 187 -131 352 -60 165 -111 303
-115 307 -3 4 -21 -38 -39 -95z m58 -64 c41 -105 181 -500 181 -514 0 -19 -52
-33 -165 -44 -63 -6 -213 9 -227 23 -7 7 86 290 172 530 15 39 24 40 39 5z"/>
</g>
</svg>
